<?xml version="1.0" encoding="utf-8"?>
<svg viewBox="35.79 121.087 428.421 257.827" xmlns="http://www.w3.org/2000/svg">
  <path d="M 35.79 185.727 L 35.79 172.563 L 117.956 140.441 L 117.956 154.464 L 52.799 179.228 L 117.956 204.22 L 117.956 218.244 L 35.79 185.727 Z" style="fill: color(a98-rgb 1 1 1);" transform="matrix(1, 0, 0, 1, 1.4210854715202004e-14, 1.4210854715202004e-14)"/>
  <path d="M 334.743 185.727 L 252.577 218.244 L 252.577 204.22 L 317.648 179.228 L 252.577 154.464 L 252.577 140.441 L 334.743 172.563 L 334.743 185.727 Z" style="fill: color(a98-rgb 1 1 1);" transform="matrix(1, 0, 0, 1, 1.4210854715202004e-14, 1.4210854715202004e-14)"/>
  <path d="M 140.195 235.953 L 140.195 121.087 L 156.615 121.087 L 156.615 178.047 L 218.219 121.087 L 240.471 121.087 L 188.429 167.628 L 242.755 235.953 L 221.091 235.953 L 176.923 177.812 L 156.615 196.151 L 156.615 235.953 L 140.195 235.953 Z" style="fill: color(a98-rgb 1 1 1);" transform="matrix(1, 0, 0, 1, 1.4210854715202004e-14, 1.4210854715202004e-14)"/>
  <path d="M 146.04 326.728 L 146.04 313.564 L 228.206 281.442 L 228.206 295.466 L 163.049 320.229 L 228.206 345.222 L 228.206 359.245 L 146.04 326.728 Z" style="fill: color(a98-rgb 1 1 1);" transform="matrix(1, 0, 0, 1, 1.4210854715202004e-14, 1.4210854715202004e-14)"/>
  <path d="M 464.211 326.728 L 382.045 359.245 L 382.045 345.222 L 447.122 320.229 L 382.045 295.466 L 382.045 281.442 L 464.211 313.564 L 464.211 326.728 Z" style="fill: color(a98-rgb 1 1 1);" transform="matrix(1, 0, 0, 1, 1.4210854715202004e-14, 1.4210854715202004e-14)"/>
  <path d="M 290.905 344.356 L 305.71 342.477 C 306.107 351.253 307.883 357.261 311.04 360.501 C 314.2 363.74 318.574 365.36 324.161 365.36 C 328.279 365.36 331.832 364.485 334.82 362.736 C 337.811 360.986 339.87 358.607 340.997 355.601 C 342.127 352.598 342.693 347.806 342.693 341.227 L 342.693 262.089 L 359.107 262.089 L 359.107 340.362 C 359.107 349.975 357.853 357.419 355.344 362.695 C 352.831 367.972 348.853 371.993 343.411 374.759 C 337.968 377.529 331.578 378.914 324.242 378.914 C 313.357 378.914 305.021 376.014 299.236 370.214 C 293.455 364.419 290.678 355.799 290.905 344.356 Z" style="fill: color(a98-rgb 1 1 1);" transform="matrix(1, 0, 0, 1, 1.4210854715202004e-14, 1.4210854715202004e-14)"/>
  <path d="M 237.756 378.914 L 273.717 260.129 L 285.904 260.129 L 250.024 378.914 L 237.756 378.914 Z" style="fill: color(a98-rgb 1 1 1);" transform="matrix(1, 0, 0, 1, 1.4210854715202004e-14, 1.4210854715202004e-14)"/>
</svg>